<svg
  xmlns="http://www.w3.org/2000/svg"
  xml:space="preserve"
  viewBox="0 0 2200 2200"
>
  <path
    d="M1594.599 1611.669c-18.088-16.365-40.856-24.706-63.806-31.9-15.85-4.969-31.892-9.312-47.929-13.631-4.932-1.328-7.866-1.06-11.558 3.024-4.011 4.437-6.224 12.222-6.893 17.929-.891 7.592-.908 15.795 1.512 23.117 1.419 4.292 4.015 12.454 8.964 13.787 30.159 8.123 62.11 15.35 89.906 30.082 4.783 2.535 9.424 5.37 13.724 8.667.069.053.137.11.205.167l-.267-.321c.137.167.296.324.454.481.155.137.304.278.445.419.405.36.826.709 1.23 1.061-2.985 2.142-6.061 4.127-9.299 5.896-8.678 4.741-17.994 8.048-27.483 10.738-25.049 6.403-50.951 8.686-76.673 10.537-28.671 2.063-57.37 3.787-86.074 5.317a5210.055 5210.055 0 0 1-174.07 6.351 5288.094 5288.094 0 0 1-349.942-4.661c-32.27-1.497-64.536-3.223-96.768-5.391-30.267-2.036-60.7-4.775-90.159-12.327-13.607-3.819-26.928-8.791-39.157-15.946a106.359 106.359 0 0 1-8.191-5.283c-1.223-.875-2.394-1.812-3.59-2.719-.474-.431-.955-.855-1.419-1.296l-.013-.012c.048-.046.094-.093.142-.138.294-.279 1.467-1.275 1.939-1.696.859-.653 1.956-1.491 2.223-1.687 4.888-3.572 10.11-6.671 15.478-9.461 13.92-7.232 28.83-12.425 43.927-16.602 22.724-5.862 46.099-9.353 69.273-12.889 23.702-3.616 47.483-6.709 71.313-9.352 49.314-5.469 98.836-9.019 148.409-11.026 96.259-3.897 192.826-2.173 288.881 5.227 47.633 3.669 95.172 8.778 142.418 15.893 4.63.697 8.974-5.645 10.607-8.787 3.156-6.072 4.544-14.474 4.393-21.213-.226-10.104-2.34-28.094-15-30-60.624-9.13-121.729-15.003-182.918-18.661a2498.68 2498.68 0 0 0-206.209-3.792c-70.268 1.606-140.519 6.159-210.301 14.652-33.57 4.086-67.13 8.922-100.348 15.306-30.892 5.938-65.298 14.949-90.48 34.803-12.579 9.917-22.092 21.814-26.482 37.501-6.176 22.066-2.811 46.37 10.253 65.22 8.522 12.296 22.154 21.405 35.365 27.998 16.494 8.231 34.502 13.248 52.485 17.011 37.183 7.78 75.492 9.313 113.314 11.504a5294.18 5294.18 0 0 0 358.951 8.592 5219.174 5219.174 0 0 0 238.489-7.819c38.451-2.145 77.276-3.587 115.477-8.662 32.367-4.3 72.012-11.624 93.891-38.475 23.089-28.337 18.1-73.34-8.639-97.533zm-983.694 52.288.045-.086c-.164.718-.153.571-.045.086zm1.033-1.607c-1.278 2.655-.849 1.43 0 0z"
    style="fill: rgb(191, 142, 79); opacity: 1"
    data-index="1"
  ></path>
  <path
    d="M1578.912 1663.071c-.062-.055-.124-.107-.187-.16 2.295 2.764 1.774 1.726.632.579a11.867 11.867 0 0 1-.445-.419zM1817.373 933.106c-95.019 85.141-205.707 174.062-338.903 180.212-31.985 1.477-64.665-1.834-95.13-11.973-27.861-9.272-53.752-23.621-77.069-41.399-46.972-35.812-82.712-85.42-109.82-135.81-9.164-17.034-17.572-34.469-25.402-52.154a964.753 964.753 0 0 1-10.901-25.65 1122.311 1122.311 0 0 1-7.038-17.663c-.219-.586-1.646-4.322-1.825-4.793-13.919-36.777-26.197-74.145-38.333-111.539-1.851-5.704-5.489-14.858-12.952-14.858s-11.101 9.154-12.952 14.858c-21.516 66.291-41.28 126.802-71.48 188.39-26.941 54.942-59.542 104.788-106.193 146.362-44.918 40.029-102.001 64.044-162.708 66.346-65.318 2.477-128.569-17.124-185.681-47.724-65.597-35.146-123.175-83.157-178.36-132.605-8.55-7.661-15.711-1.694-19.35 7.727-4.354 11.272-5.363 28.642 1.173 39.391 42.361 69.664 79.524 142.439 110.552 217.849a1558.578 1558.578 0 0 1 10.661 26.619c1.86 4.767.86 2.225.456 1.174a1558.276 1558.276 0 0 1 8.138 21.698 1527.43 1527.43 0 0 1 18.642 53.983 1560.939 1560.939 0 0 1 30.174 105.528 1607.082 1607.082 0 0 1 12.349 53.629c3.939 19.209 7.625 38.461 10.954 57.786 1.341 7.785 6.68 26.955 18.452 20.953 11.047-5.633 12.224-26.76 10.477-36.904-26.237-152.286-72.62-300.621-140.807-439.424-1.266-2.577-2.563-5.138-3.843-7.708 80.119 62.622 170.023 114.131 273.393 118.017 64.838 2.438 128.109-17.263 179.446-56.995 51.45-39.819 90.626-92.904 121.27-149.866 31.504-58.561 54.301-121.314 75.241-184.394 18.476 55.587 38.396 110.835 64.379 163.349 28.315 57.228 64.541 112.48 112.807 154.891 23.156 20.347 48.456 38.12 76.767 50.554 30.443 13.37 63.684 20.818 96.867 22.366 68.399 3.19 136.355-17.716 196.163-49.761 36.252-19.424 70.094-42.78 102.461-68.119-51.315 103.123-91.38 211.77-119.009 323.693-7.984 32.341-14.99 64.935-21.112 97.686-10.649-3.463-21.435-6.557-32.186-9.587-43.369-12.226-87.353-22.202-131.658-30.381-65.926-12.17-132.572-20.414-199.437-25.168-86.338-6.139-173.092-6.393-259.476-.987-102.61 6.421-204.703 20.867-305.095 43.022a2088.255 2088.255 0 0 0-40.283 9.323c-12.217 2.951-15.245 19.043-15 30 .161 7.192 1.039 14.734 4.393 21.213 1.735 3.351 5.973 9.906 10.607 8.787 101.854-24.599 205.55-41.393 310.002-49.812 87.75-7.073 175.982-8.303 263.887-3.492 69.652 3.812 139.127 11.388 207.896 23.119 26.248 4.478 52.393 9.565 78.386 15.339a1430.946 1430.946 0 0 1 32.529 7.618 1301.682 1301.682 0 0 1 20.599 5.259c1.034.273 2.066.552 3.1.823l.062.016.254.069c19.042 5.196 37.788 11.083 56.542 17.195.243.079.483.173.723.261 12.258 4.503 16.939-12.173 18.452-20.953 3.06-17.763 6.377-35.48 9.995-53.138.318-1.55.64-3.098.959-4.648l.243-1.181.209-.961c.842-3.887 1.678-7.775 2.539-11.659 2.079-9.38 4.24-18.743 6.487-28.084 8.425-35.027 18.03-69.771 28.845-104.136a1537.12 1537.12 0 0 1 17.636-52.686 1525.545 1525.545 0 0 1 9.678-26.481c.908-2.415 1.829-4.825 2.742-7.237l.787-2.057c1.918-4.956 3.872-9.897 5.848-14.83a1531.617 1531.617 0 0 1 48.328-108.296c20.698-41.946 43.33-82.909 67.63-122.873 6.558-10.785 5.513-28.156 1.173-39.391-3.576-9.258-10.619-15.552-19.35-7.728zM1032.131 611.471c13.945 15.983 33.553 25.269 54.5 27.616 22.564 2.527 47.212-3.883 65.578-17.262 22.042-16.057 36.625-40.178 39.893-67.333.099-.674.174-1.318.218-1.915.329-3.281.495-6.622.42-9.955.26-24.993-5.71-48.712-19.694-70.074-8.437-12.889-20.483-24.766-35.086-30.34-24.84-9.482-53.776-8.8-78.056 2.113-36.888 16.581-54.747 59.308-52.834 98 1.227 24.831 8.425 50.082 25.061 69.15zm10.033-58.436c.032-.02.322.441.636.961-.417-.559-.676-.936-.636-.961zm121.08-14.239-.036.138.022-.253.017.062-.003.053zm-109.732-28.217zm-1.08.938c.216-.162.438-.309.656-.469-.804.726-2.269 1.678-.656.469zm-13.904 19.304c.195-.457.386-.915.593-1.364 1.079-2.353 2.338-4.583 3.582-6.847.665-.917 1.319-1.839 2.016-2.733a67.299 67.299 0 0 1 7.169-7.831c.268-.25.836-.658 1.233-1.02 7.847-5.764 16.298-10.016 25.609-12.784 15.093-3.565 31.047-3.567 46.123.093 3.908 1.174 7.739 2.616 11.359 4.51 2.272 1.189 4.416 2.574 6.479 4.096.023.017.84.663 1.471 1.153.61.55 1.556 1.383 1.578 1.404a75.577 75.577 0 0 1 4.575 4.761 79.981 79.981 0 0 1 4.202 5.181c.525.705 1.026 1.427 1.534 2.143 1.057 1.983 2.236 3.889 3.236 5.907.443.895.872 1.798 1.284 2.708.133.292.41.966.662 1.578.394 1.171.765 2.35 1.103 3.539.143.502.269 1.008.4 1.512.031.205.056.411.09.616a47.107 47.107 0 0 0-.119 2.793c-.217.957-.324 1.391-.002.283v.275c-.032.108-.055.218-.088.326-.103.335-.226.664-.335.997-.647 1.28-1.218 2.596-1.894 3.865a66.144 66.144 0 0 1-1.461 2.598c-1.234 2.01-1.024 1.708.629-.907-.148 1.075-2.031 2.842-2.65 3.64a77.955 77.955 0 0 1-7.025 7.874 86.288 86.288 0 0 1-2.523 2.357c1.348-1.253-2.548 2.007-3.124 2.426a84.655 84.655 0 0 1-8.971 5.706c-5.618 3.09-11.537 5.487-17.663 7.322-13.592 3.227-27.581 3.454-41.189.266-5.708-1.742-11.213-4.04-16.374-7.069-2.593-1.522-4.968-3.27-7.378-5.044-.514-.479-1.042-.945-1.543-1.432a67.833 67.833 0 0 1-3.378-3.532c-.417-.468-3.28-3.997-4.732-5.915-.254-.426-.515-.849-.761-1.28a72.726 72.726 0 0 1-2.278-4.326c-.522-1.076-.949-2.222-1.441-3.323-.038-.111-.079-.222-.115-.333-.406-1.266-.743-2.548-1.11-3.824a75.152 75.152 0 0 1-.363-2.666c-.002-.382.003-.764.009-1.145.016-.374.029-.74.07-1.047.029-.213.082-.541.146-.917.199-.789.444-1.771.575-2.207.241-.804.517-1.594.79-2.383zM330.38 774.525c-8.437-12.889-20.483-24.766-35.086-30.34-24.84-9.482-53.776-8.8-78.056 2.113-36.888 16.581-54.747 59.308-52.834 98 1.228 24.833 8.425 50.084 25.062 69.152 13.945 15.983 33.553 25.269 54.5 27.616 22.564 2.527 47.212-3.883 65.578-17.262 22.042-16.057 36.625-40.178 39.893-67.333.099-.674.174-1.318.218-1.915.329-3.281.495-6.622.42-9.956.259-24.995-5.711-48.713-19.695-70.075zm-9.837 66.387.022-.253.017.062-.003.053-.036.138zm-109.697-28.355a.727.727 0 0 1-.087.128c.034-.044.068-.088.087-.128zm-1.08.939c.216-.162.438-.309.655-.468-.803.725-2.268 1.677-.655.468zm-10.268 41.518c.032-.02.322.441.636.961-.417-.559-.676-.936-.636-.961zm117.392-5.365c-.148 1.075-2.031 2.842-2.649 3.64a77.955 77.955 0 0 1-7.025 7.874 84.114 84.114 0 0 1-2.528 2.361c1.359-1.262-2.543 2.003-3.12 2.422a84.655 84.655 0 0 1-8.971 5.706c-5.618 3.09-11.537 5.487-17.663 7.322-13.591 3.227-27.581 3.454-41.189.266-5.708-1.742-11.213-4.04-16.374-7.069-2.593-1.522-4.968-3.269-7.378-5.044-.514-.479-1.042-.945-1.543-1.432a67.833 67.833 0 0 1-3.378-3.532c-.417-.468-3.28-3.997-4.732-5.915-.254-.426-.515-.849-.761-1.28a72.726 72.726 0 0 1-2.278-4.326c-.522-1.076-.949-2.222-1.441-3.323-.038-.111-.079-.222-.115-.333-.406-1.266-.743-2.548-1.11-3.824a77.545 77.545 0 0 1-.363-2.666c-.002-.382.003-.763.009-1.144.016-.374.029-.741.07-1.048.029-.213.082-.541.146-.917.2-.789.444-1.771.575-2.207.242-.801.517-1.591.791-2.38.195-.457.386-.915.593-1.364 1.079-2.353 2.338-4.583 3.582-6.847.664-.917 1.319-1.839 2.016-2.733a67.299 67.299 0 0 1 7.169-7.831c.268-.25.836-.658 1.233-1.02 7.847-5.764 16.297-10.016 25.609-12.784 15.093-3.565 31.048-3.567 46.125.094 3.908 1.174 7.738 2.615 11.358 4.509 2.272 1.189 4.416 2.574 6.479 4.096.023.017.84.663 1.471 1.153.61.55 1.556 1.383 1.578 1.404a75.577 75.577 0 0 1 4.575 4.761 79.981 79.981 0 0 1 4.202 5.181c.525.705 1.025 1.426 1.534 2.143 1.057 1.983 2.237 3.889 3.236 5.907.443.895.872 1.798 1.284 2.708.133.292.41.966.662 1.578.394 1.171.765 2.35 1.103 3.539.143.502.269 1.008.4 1.512.031.205.056.411.09.616a47.107 47.107 0 0 0-.119 2.793c-.217.957-.324 1.391-.002.283v.275c-.032.108-.055.218-.088.326-.103.335-.225.664-.335.997-.647 1.281-1.219 2.597-1.895 3.865a66.144 66.144 0 0 1-1.461 2.598c-1.235 2.006-1.026 1.704.628-.91zM2035.406 844.599c.26-24.993-5.71-48.712-19.694-70.074-8.437-12.889-20.483-24.766-35.086-30.34-24.84-9.482-53.776-8.8-78.056 2.113-36.888 16.581-54.747 59.308-52.834 98 1.228 24.833 8.425 50.084 25.062 69.152 13.945 15.983 33.553 25.269 54.5 27.616 22.564 2.527 47.212-3.883 65.578-17.262 22.042-16.057 36.626-40.178 39.894-67.335.099-.673.174-1.317.218-1.914.327-3.281.493-6.622.418-9.956zm-29.532-3.686.022-.254.017.062-.003.054-.036.138zm-109.696-28.356zm-1.08.939c.216-.162.438-.309.655-.468-.803.725-2.268 1.677-.655.468zm-10.268 41.518c.032-.02.322.441.636.961-.417-.559-.676-.936-.636-.961zm117.391-5.365c-.148 1.075-2.031 2.842-2.649 3.64a77.955 77.955 0 0 1-7.025 7.874 86.288 86.288 0 0 1-2.523 2.357c1.348-1.253-2.548 2.007-3.124 2.426a84.655 84.655 0 0 1-8.971 5.706c-5.618 3.09-11.537 5.487-17.663 7.322-13.592 3.227-27.582 3.454-41.189.266-5.708-1.742-11.213-4.04-16.374-7.069-2.593-1.522-4.968-3.27-7.378-5.044-.514-.479-1.042-.945-1.543-1.432a67.833 67.833 0 0 1-3.378-3.532c-.417-.468-3.28-3.997-4.732-5.915-.254-.426-.515-.85-.761-1.28a72.726 72.726 0 0 1-2.278-4.326c-.522-1.076-.949-2.221-1.44-3.322-.038-.111-.079-.222-.115-.334-.406-1.266-.743-2.548-1.11-3.824a77.545 77.545 0 0 1-.363-2.666c-.002-.382.003-.764.009-1.145.016-.374.029-.74.07-1.047.029-.213.082-.541.146-.917.199-.789.444-1.771.575-2.207.242-.801.517-1.591.791-2.38.195-.457.386-.915.592-1.364 1.079-2.353 2.338-4.583 3.582-6.847.665-.917 1.319-1.839 2.016-2.733a67.299 67.299 0 0 1 7.169-7.831c.268-.25.836-.658 1.233-1.02 7.847-5.764 16.298-10.016 25.609-12.784 15.093-3.565 31.048-3.567 46.124.094 3.908 1.174 7.738 2.615 11.358 4.509 2.272 1.189 4.417 2.574 6.479 4.096.023.017.84.663 1.471 1.153.61.55 1.556 1.383 1.578 1.404a75.577 75.577 0 0 1 4.575 4.761 79.981 79.981 0 0 1 4.202 5.181c.525.705 1.026 1.427 1.535 2.143 1.057 1.983 2.236 3.889 3.236 5.907.443.895.872 1.798 1.284 2.708.132.292.41.966.662 1.578.394 1.171.765 2.35 1.103 3.539.143.502.269 1.008.4 1.513.031.205.056.41.09.615a47.107 47.107 0 0 0-.119 2.793c-.217.957-.324 1.392-.002.283v.274c-.032.108-.055.218-.089.326-.103.335-.226.664-.335.997-.647 1.281-1.219 2.596-1.895 3.865a67.435 67.435 0 0 1-1.46 2.598c-1.236 2.007-1.026 1.705.627-.909z"
    style="fill: rgb(191, 142, 79); opacity: 1"
    data-index="2"
  ></path>
</svg>
