<?xml version="1.0" encoding="UTF-8"?>
<svg version="1.1" xmlns="http://www.w3.org/2000/svg" width="1080" height="1350">
<path d="M0 0 C105.6 0 211.2 0 320 0 C320.185625 42.260625 320.37125 84.52125 320.5625 128.0625 C320.64443604 141.415979 320.72637207 154.76945801 320.81079102 168.52758789 C320.85144043 184.80944824 320.85144043 184.80944824 320.85899353 192.42698669 C320.86739306 197.7578785 320.90043145 203.08794907 320.95018005 208.41856384 C321.01351404 215.21491401 321.03043633 222.01007914 321.01765049 228.80670631 C321.02032465 231.30302218 321.03822116 233.79937824 321.07293618 236.29545414 C321.11763651 239.66562413 321.10695082 243.03123232 321.08229065 246.40150452 C321.10850463 247.38080649 321.13471861 248.36010847 321.16172695 249.36908627 C321.07959025 253.53807992 320.92275501 256.0026822 318.02297485 259.13677776 C315.75217173 260.92176414 313.45792439 262.48670265 311 264 C310.07082764 264.67361572 309.14165527 265.34723145 308.18432617 266.04125977 C307.39517822 266.58580811 306.60603027 267.13035645 305.79296875 267.69140625 C304.88716064 268.31869629 303.98135254 268.94598633 303.0480957 269.59228516 C302.10409912 270.24245605 301.16010254 270.89262695 300.1875 271.5625 C298.14304628 272.97760039 296.09877876 274.39296984 294.0546875 275.80859375 C292.52859863 276.86409424 292.52859863 276.86409424 290.97167969 277.94091797 C286.57488667 280.98746351 282.19274536 284.05473049 277.8125 287.125 C276.9978125 287.69565186 276.183125 288.26630371 275.34375 288.85424805 C272.89560068 290.56916693 270.44775245 292.2845147 268 294 C256.53903383 302.03231509 245.06538576 310.04582061 233.57373047 318.03417969 C224.85313321 324.09800618 216.15003556 330.18658311 207.45166016 336.28222656 C204.97213143 338.01952631 202.49203605 339.7560138 200.01171875 341.4921875 C198.76986816 342.36145874 198.76986816 342.36145874 197.50292969 343.24829102 C195.84615172 344.40780934 194.18925243 345.56715434 192.53222656 346.72631836 C188.17539665 349.77463727 183.82180516 352.82744888 179.47265625 355.88671875 C178.56708984 356.52287109 177.66152344 357.15902344 176.72851562 357.81445312 C174.99577055 359.03181761 173.26394705 360.25049525 171.53320312 361.47070312 C167.76015883 364.1195976 164.00642045 366.70946063 160 369 C147.77495403 360.6784338 135.61837638 352.26514395 123.51611328 343.76611328 C119.34708144 340.8397814 115.17333377 337.92019182 111 335 C106.03433198 331.52461283 101.06904572 328.04868565 96.10546875 324.5703125 C87.24792374 318.36438924 78.38041071 312.17316719 69.5 306 C59.80746692 299.26229054 50.13167641 292.50107883 40.46484375 285.7265625 C37.94617913 283.9622998 35.42638072 282.19966774 32.90625 280.4375 C24.70020144 274.69906478 16.49880611 268.95407518 8.3125 263.1875 C7.58716064 262.67751465 6.86182129 262.1675293 6.11450195 261.64208984 C1.1168365 258.1168365 1.1168365 258.1168365 0 257 C-0.09644787 255.62386177 -0.12371912 254.24280167 -0.12304783 252.86328793 C-0.12603414 251.517028 -0.12603414 251.517028 -0.12908077 250.1435709 C-0.12616811 249.14679294 -0.12325544 248.15001497 -0.12025452 247.12303162 C-0.12111053 246.0752504 -0.12196655 245.02746918 -0.12284851 243.94793701 C-0.12451456 240.39683373 -0.11896254 236.84577676 -0.11352539 233.29467773 C-0.11321932 230.72139265 -0.1133521 228.14810748 -0.11389065 225.57482243 C-0.11442358 219.36006767 -0.10979391 213.14532729 -0.10338932 206.93057624 C-0.09620613 199.74607548 -0.09539549 192.56157981 -0.09460449 185.3770752 C-0.08934821 166.39721451 -0.07538718 147.41735704 -0.0625 128.4375 C-0.041875 86.053125 -0.02125 43.66875 0 0 Z " fill="#050504" transform="translate(380,491)"/>
<path d="M0 0 C9.9 0 19.8 0 30 0 C30.3165713 39.70390702 30.56717712 79.4074819 30.71491461 119.11239731 C30.73242425 123.80117063 30.75054479 128.48994141 30.76904297 133.17871094 C30.77271531 134.11215026 30.77638766 135.04558958 30.78017129 136.00731494 C30.84107031 151.11646135 30.95144199 166.2248611 31.08013915 181.33356474 C31.21111797 196.83959659 31.28883447 212.34523775 31.31723893 227.85180008 C31.33643822 237.41868954 31.39704031 246.98346866 31.51083054 256.54970832 C31.58490764 263.11208291 31.60718664 269.67336867 31.58901928 276.23613088 C31.58006026 280.02201431 31.59365659 283.80421529 31.66887665 287.5894413 C32.1184471 311.36464921 32.1184471 311.36464921 26.95218277 317.1256752 C23.52199848 320.05688063 20.36126883 321.82429488 16 323 C9.87823903 321.09763933 4.3921402 317.64643582 0 313 C-1.55042519 308.70445613 -1.44432066 304.68582591 -1.32279968 300.15527344 C-1.33219836 298.87028615 -1.34159703 297.58529886 -1.35128051 296.26137257 C-1.37579331 292.70937478 -1.33201746 289.16104909 -1.27672184 285.60951924 C-1.22909928 281.77459156 -1.24530192 277.93986137 -1.25364685 274.10472107 C-1.25940755 267.46526222 -1.22497531 260.82699483 -1.16303062 254.18783569 C-1.07353008 244.58901104 -1.04497473 234.99076093 -1.03116272 225.39156425 C-1.00710346 209.81686878 -0.93394297 194.242808 -0.82983398 178.66845703 C-0.7288234 163.54186167 -0.65098141 148.41543887 -0.60424805 133.28857422 C-0.59991311 131.88933248 -0.59991311 131.88933248 -0.5954906 130.46182323 C-0.58113491 125.78197508 -0.56723419 121.10212572 -0.55355966 116.42227554 C-0.4395746 77.61438425 -0.24284087 38.80728314 0 0 Z " fill="#AFF46C" transform="translate(525,511)"/>
<path d="M0 0 C9.57 0 19.14 0 29 0 C29.42994135 34.04736303 29.76990177 68.09370946 29.97024126 102.14318142 C29.99400337 106.16715479 30.01859562 110.19112269 30.04370117 114.21508789 C30.04868507 115.01615323 30.05366897 115.81721857 30.05880389 116.64255861 C30.14137742 129.59678287 30.2911216 142.54939757 30.46590313 155.5026684 C30.64387802 168.8040066 30.7491768 182.10450472 30.7876814 195.40698463 C30.81369612 203.60989312 30.89568422 211.80825265 31.05041287 220.00975952 C31.15122189 225.64172452 31.18112458 231.27135526 31.15652617 236.90415593 C31.14440076 240.15174825 31.17283516 243.38980986 31.26490402 246.636343 C31.774703 265.54612038 31.774703 265.54612038 27.17678666 271.26948953 C22.74602368 275.27218193 17.81971528 278.08272995 12.48526347 280.70780432 C9.04133851 282.49844946 5.90240907 284.66080745 2.71738595 286.87169856 C1 288 1 288 0 288 C0 192.96 0 97.92 0 0 Z " fill="#B3FA6E" transform="translate(588,512)"/>
<path d="M0 0 C9.57 0 19.14 0 29 0 C29 95.04 29 190.08 29 288 C24.79643364 285.59796208 20.92747156 283.36265554 17.01171875 280.6171875 C16.14095703 280.00746094 15.27019531 279.39773438 14.37304688 278.76953125 C13.04370117 277.83173828 13.04370117 277.83173828 11.6875 276.875 C10.78193359 276.24207031 9.87636719 275.60914063 8.94335938 274.95703125 C2.2675047 270.2675047 2.2675047 270.2675047 0 268 C-0.24839699 266.03317916 -0.24839699 266.03317916 -0.24609566 263.56844902 C-0.25007775 262.63091691 -0.25405985 261.6933848 -0.25816262 260.72744262 C-0.25233693 259.69049416 -0.24651125 258.6535457 -0.24050903 257.58517456 C-0.24221788 256.48907368 -0.24392673 255.3929728 -0.24568737 254.26365674 C-0.24899919 250.56616828 -0.23795072 246.86885864 -0.22705078 243.17138672 C-0.22648703 240.53072702 -0.22671431 237.8900785 -0.22793579 235.24942017 C-0.22898604 229.55160523 -0.22269487 223.853836 -0.21146011 218.15603256 C-0.19522697 209.91790584 -0.18999935 201.67980128 -0.18748413 193.4416603 C-0.18310359 180.07681699 -0.16978476 166.71199804 -0.15087891 153.34716797 C-0.13252939 140.36214317 -0.11836835 127.37712498 -0.10986328 114.39208984 C-0.10933783 113.59210048 -0.10881239 112.79211111 -0.10827102 111.96787964 C-0.105661 107.95468985 -0.10313357 103.94150002 -0.10064721 99.92831016 C-0.07990352 66.61885503 -0.04411898 33.3094322 0 0 Z " fill="#B3FA6E" transform="translate(463,512)"/>
<path d="M0 0 C9.9 0 19.8 0 30 0 C30 81.18 30 162.36 30 246 C23.50234213 241.86512681 17.20037986 237.83870252 11.0625 233.25 C10.43021484 232.78207031 9.79792969 232.31414062 9.14648438 231.83203125 C7.42783915 230.55882713 5.71264248 229.28126356 4 228 C3.31575581 227.66305713 2.63151161 227.32611425 1.92653275 226.97896099 C-0.61177862 224.37157257 -0.48069105 222.25732534 -0.51632524 218.72380525 C-0.49884819 217.42371799 -0.49884819 217.42371799 -0.48101807 216.09736633 C-0.48614462 214.7153225 -0.48614462 214.7153225 -0.49137473 213.30535859 C-0.49798553 210.20496908 -0.47592458 207.10543726 -0.45410156 204.00512695 C-0.45297378 201.78796408 -0.45360559 199.5707997 -0.45587158 197.3536377 C-0.45702234 191.32288594 -0.43345427 185.29245045 -0.40557575 179.26177239 C-0.38062245 172.96369024 -0.37822489 166.66560137 -0.37347412 160.36747742 C-0.362442 149.79270029 -0.33743309 139.21802721 -0.30175781 128.64331055 C-0.26504839 117.75073835 -0.23673143 106.85819773 -0.21972656 95.96557617 C-0.21867567 95.29429034 -0.21762477 94.6230045 -0.21654204 93.93137667 C-0.21132193 90.56377274 -0.20626709 87.19616859 -0.20129442 83.82856429 C-0.1594496 55.88562571 -0.08825994 27.94282718 0 0 Z " fill="#AFF46C" transform="translate(400,511)"/>
<path d="M0 0 C9.57 0 19.14 0 29 0 C29.27138912 28.52724308 29.48617413 57.05420628 29.61278395 85.58248818 C29.62779208 88.95196694 29.64332398 92.3214431 29.65917969 95.69091797 C29.66390128 96.69710273 29.66390128 96.69710273 29.66871825 97.72361445 C29.72090709 108.57914681 29.81550493 119.43391508 29.92583355 130.28899443 C30.03813076 141.4308516 30.10382341 152.57244766 30.12906194 163.71487713 C30.14470914 169.97237263 30.1814829 176.22813644 30.26876068 182.4850769 C30.35026151 188.37563351 30.37533153 194.26374689 30.35729218 200.15481377 C30.36059166 202.31564049 30.384441 204.47654947 30.4304657 206.6368885 C30.76143245 222.97441754 30.76143245 222.97441754 26.39992523 227.98999023 C23.3362566 230.05953621 20.38857059 231.54251101 17 233 C15.42952145 234.02532874 13.87761986 235.08093754 12.36328125 236.1875 C11.68458984 236.65800781 11.00589844 237.12851562 10.30664062 237.61328125 C8.93360247 238.56808741 7.56124562 239.5238738 6.18945312 240.48046875 C1.10732887 244 1.10732887 244 0 244 C0 163.48 0 82.96 0 0 Z " fill="#B2F86D" transform="translate(651,512)"/>
</svg>
